<?xml version="1.0" encoding="iso-8859-1"?>
<svg version="1.1" id="Capa_1" xmlns="http://www.w3.org/2000/svg" xmlns:xlink="http://www.w3.org/1999/xlink" x="0px" y="0px"
     width="381.399px" height="381.399px" viewBox="0 0 381.399 381.399" style="enable-background:new 0 0 381.399 381.399;"
     xml:space="preserve">
<g>
	<path d="M233.757 248.099l-63.649 25.147v-266.551c0-2.816-2.286-5.094-5.104-5.094h-51.013c-2.82 0-5.099 2.277-5.099 5.094V273.246l-63.658-25.147c-2.138-.834-4.564-.15-5.946 1.669-1.389 1.839-1.379 4.36.028 6.187L135.452 381.009C136.417 382.264 137.91 383 139.502 383c1.576 0 3.075-.741 4.041-1.991l96.137-125.061c.71-.919 1.061-2.017 1.061-3.109 0-1.063-.346-2.158-1.035-3.078C238.333 247.948 235.891 247.265 233.757 248.099zM197.689 4.113h145.456v33.62H197.689V4.113zM197.689 68.556h145.456v33.622H197.689V68.556zM197.689 164.749v-33.619h145.456v33.619H197.689z"/>
</g>
</svg>
