<svg width="50" height="50" xmlns="http://www.w3.org/2000/svg" xmlns:svg="http://www.w3.org/2000/svg">
  <g>
    <path fill="black" id="svg_1" d="m25,47.33567l-0.8756,-0.72967c-18.82551,-15.32309 -23.9332,-20.72265 -23.9332,-29.4787c0,-7.29671 5.83737,-13.13407 13.13407,-13.13407c5.9833,0 9.33979,3.35649 11.67473,5.9833c2.33495,-2.62681 5.69143,-5.9833 11.67473,-5.9833c7.29671,0 13.13407,5.83737 13.13407,13.13407c0,8.75605 -5.1077,14.15561 -23.9332,29.4787l-0.8756,0.72967zm-11.67473,-40.42376c-5.69143,0 -10.21539,4.52396 -10.21539,10.21539c0,7.44264 4.66989,12.4044 21.89012,26.41408c17.22023,-14.00968 21.89012,-18.97144 21.89012,-26.41408c0,-5.69143 -4.52396,-10.21539 -10.21539,-10.21539c-5.1077,0 -7.88044,3.06462 -10.06946,5.5455l-1.60528,1.89714l-1.60528,-1.89714c-2.18901,-2.48088 -4.96176,-5.5455 -10.06946,-5.5455z"/>
  </g>
</svg>