<svg width="358" height="402" xmlns="http://www.w3.org/2000/svg">
  <style type="text/css">
    .st0{stroke:#000000;stroke-miterlimit:10;}
    .st1{fill:none;stroke:#FFFFFF;stroke-width:8;stroke-miterlimit:10;}
    .st2{fill:#FFFFFF;}
    .st3{stroke:#000000;stroke-width:3;stroke-miterlimit:10;}
  </style>

  <g>
    <title>background</title>
    <rect fill="none" id="canvas_background" height="404" width="360" y="-1" x="-1"/>
  </g>
  <g>
    <title>Layer 1</title>
    <g id="XMLID_3_">
      <path d="m10.9,145.2c0.8,-0.1 1.5,-0.1 2.3,-0.2c0,-0.3 -0.1,-0.5 -0.1,-0.8c108,-30.5 216,-61 324.4,-91.7c-1,-3.6 -2,-7 -2.9,-10.4c-1.7,-6.1 -3.4,-12.2 -5.1,-18.3c-4.6,-16 -19.6,-24.7 -35.6,-20.2c-53.5,15 -106.9,30.2 -160.3,45.3c-35.8,10.1 -71.5,20.3 -107.3,30.2c-10.7,3 -18.9,8.5 -22.5,19.4c-1.9,5.6 -1.9,11.3 -0.3,17.1c2.4,8.4 4.9,16.8 7,25.3c0.2,1.4 0.4,2.8 0.4,4.3zm275.1,-128.3c2.6,-2.8 8,-2.9 12.2,-4.2c4.9,-1.5 9.8,-1.4 14.4,1.1c1,0.6 2,2.3 1.8,3.4c-1.5,10.7 -3.2,21.4 -5,32.1c-0.2,1 -1.1,2.5 -2,2.8c-9.5,2.8 -19,5.5 -29.1,8.3c0.3,-2.3 0.4,-3.9 0.7,-5.5c1.4,-8.6 2.9,-17.3 4.3,-25.9c0.8,-4.1 0.2,-9.5 2.7,-12.1zm-56,15.3c7.4,-2.2 14.9,-4.3 22.3,-6.4c1.8,-0.5 3.7,-1 5.8,-1.5c-0.4,2.9 -0.6,5.5 -1,7.9c-1.6,9.7 -3.7,19.3 -4.7,29.1c-0.6,5.5 -2.6,7.9 -8,9c-7.9,1.7 -15.5,4.2 -24,6.6c2.4,-14.7 4.6,-28.6 7,-42.5c0.2,-0.9 1.6,-1.9 2.6,-2.2zm-57.8,16.2c8.4,-2.5 16.8,-4.8 25.3,-7.2c0.8,-0.2 1.7,-0.3 3,-0.4c-2.4,14.3 -4.6,28.2 -7,42.1c-0.2,0.9 -1.5,2 -2.5,2.3c-5.6,1.7 -11.3,3.3 -17,4.9c-3.6,1 -7.3,2 -11,3c-0.1,-0.8 -0.1,-1.1 -0.1,-1.5c2.2,-13.6 4.3,-27.2 6.7,-40.7c0.1,-1 1.6,-2.2 2.6,-2.5zm-58.6,16.6c9.4,-2.8 18.8,-5.4 28.9,-8.2c-0.1,1.4 -0.1,2.3 -0.2,3.2c-1.9,11.8 -4.1,23.5 -5.6,35.3c-0.6,4.4 -2.3,6.3 -6.5,7.3c-8.4,2 -16.6,4.6 -25.1,6.9c-0.1,-0.7 -0.1,-1.1 -0.1,-1.4c2.2,-13.6 4.3,-27.2 6.6,-40.7c0.2,-0.9 1.1,-2.2 2,-2.4zm-50.8,14.1c7.3,-1.2 14.4,-3.9 21.8,-6c0,1 0,1.5 -0.1,2.1c-2.2,13.3 -4.3,26.7 -6.6,40c-0.2,1.1 -1.7,2.3 -2.9,2.7c-4.7,1.5 -9.5,2.8 -14.3,4.1c-4.4,1.2 -8.8,2.5 -13.7,3.8c0.2,-1.6 0.3,-2.6 0.5,-3.5c1.7,-10.4 3.8,-20.7 4.8,-31.1c0.7,-7.1 3.2,-10.8 10.5,-12.1zm-35.8,10.8c-2.3,14 -4.5,27.7 -6.7,41.4c-0.3,0 -0.7,0 -1,0c-1.9,-7.3 -4.2,-14.6 -5.5,-22c-1.6,-8.5 4.7,-17.5 13.2,-19.4z" id="XMLID_17_"/>
      <path d="m13.1,142.5c0,0 0,-0.1 0,-0.1c-0.7,0.2 -1.4,0.5 -2.2,0.7c0,0 0,0 0,0.1c0.7,-0.3 1.5,-0.5 2.2,-0.7c0,0 0,0 0,0z" id="XMLID_22_"/>
      <path d="m13.1,142.5c-0.8,0.2 -1.5,0.4 -2.3,0.6c0.3,1.5 0.5,3 0.5,4.4c0.1,20.8 0,41.6 -0.1,62.4c-0.1,22.6 -0.3,45.3 -0.3,67.9c-0.1,22.6 0,45.3 0,67.9c0,9 -0.3,18 -0.1,27c0.2,14.2 11.4,28.1 30,28c28.6,-0.2 57.3,0.1 85.9,0.2c22.5,0 45.1,0 67.6,0c22.5,0 45.1,0.2 67.6,0.3c19.8,0.1 39.5,0.3 59.3,0c14.5,-0.2 25.2,-9.1 27.7,-22.4c0.8,-4.2 0.7,-8.5 0.7,-12.8c0.1,-33.3 0.1,-66.5 0.1,-99.8c0,-29.5 0.1,-58.9 0.2,-88.4c0,-11.3 0.1,-22.6 0.2,-34.5c-112.6,-0.2 -224.8,-0.5 -337,-0.8zm9.6,49.6c0,-13.5 0.1,-26.6 0.1,-39.6c0.3,-0.1 0.6,-0.1 0.9,-0.2c6.1,13.1 12.1,26.2 18.5,39.8c-6.8,0 -13,0 -19.5,0zm50.4,0.2c-2.2,0 -3.3,-1 -4.1,-2.8c-3.5,-7.7 -7,-15.3 -10.6,-22.9c-2.2,-4.8 -4.4,-9.5 -6.6,-14.3c0.6,-0.3 0.8,-0.4 1,-0.4c9.7,-0.1 19.4,-0.2 29.1,-0.1c0.9,0 2.2,1.4 2.7,2.5c3.3,7 6.5,14 9.8,21c2.5,5.5 5.1,11 7.9,17.1c-10.2,-0.1 -19.7,-0.2 -29.2,-0.1zm58.8,0c-0.9,0 -2,-1.3 -2.5,-2.3c-2.9,-6 -5.7,-12.1 -8.5,-18.2c-3,-6.5 -6,-12.9 -9.3,-20.1c10.3,0 19.8,0.2 29.4,0.1c2.1,0 3,0.7 3.8,2.6c4.9,10.8 10,21.5 15,32.3c0.8,1.7 1.5,3.5 2.4,5.7c-10.6,0 -20.5,0.1 -30.3,-0.1zm60,0.1c-0.9,0 -2,-1.3 -2.5,-2.3c-3.6,-7.5 -7,-15.1 -10.5,-22.6c-2.3,-5 -4.6,-10 -6.9,-15c0.8,-0.3 1.1,-0.5 1.4,-0.5c9.5,0 18.9,-0.1 28.4,0c1,0 2.3,1.3 2.8,2.4c2.6,5.3 5,10.6 7.5,16c3.3,7.2 6.7,14.4 10.3,22.3c-10.7,-0.1 -20.6,-0.1 -30.5,-0.3zm89.1,0.4c-9.5,0 -18.9,0 -28.4,-0.2c-1.1,0 -2.6,-1.3 -3.1,-2.4c-3.6,-7.5 -7.1,-15 -10.5,-22.6c-2.3,-5 -4.6,-10 -6.9,-14.9c0.6,-0.3 0.8,-0.5 1,-0.5c9.7,0 19.4,0 29.1,0.1c0.9,0 2.1,1.2 2.6,2.1c3,6.2 5.9,12.5 8.8,18.8c2.9,6.3 5.8,12.7 8.8,19.2c-0.8,0.2 -1.1,0.4 -1.4,0.4zm30.9,-0.1c-0.8,0 -2,-1.4 -2.5,-2.4c-3.1,-6.5 -6.1,-13.2 -9.2,-19.8c-2.7,-5.9 -5.5,-11.9 -8.5,-18.3c10.6,0 20.6,0 30.6,0.2c0.9,0 2.1,1.5 2.6,2.6c4.3,8.9 8.4,18 12.6,27c1.6,3.4 3.1,6.9 4.9,10.9c-10.5,0 -20.5,0 -30.5,-0.2z" id="XMLID_25_"/>
      <g id="XMLID_4_">
        <g id="XMLID_85_">
          <path d="m157,217.6c1.5,0.1 3,0 4.6,0.2c11,1.4 19.2,6.9 24.2,16.8c4.9,9.8 4.4,19.6 -0.8,29.1c-0.3,0.5 -0.2,0.7 0.2,1c1.6,1.2 3.2,2.4 4.7,3.6c0.6,0.5 1.2,0.7 2,0.5c0.5,-0.2 0.8,0 1.3,0.3c13,10.2 26,20.3 39.1,30.5c0.1,0.1 0.1,0.1 0.2,0.2c1,0.7 2,1.4 2.4,2.7c0.1,0.7 0.2,1.4 0.3,2.1c-0.7,2.1 -1.9,3.9 -4,4.8c-0.4,0.1 -0.8,0.1 -1.2,0.2c0,0 0,0 -0.1,0c-1.6,0.3 -2.7,-0.7 -3.8,-1.6c-13.2,-10.3 -26.4,-20.6 -39.6,-30.9c-0.4,-0.3 -0.7,-0.7 -0.7,-1.2c-0.1,-0.8 -0.4,-1.3 -1.1,-1.8c-1.4,-1 -2.8,-2.1 -4.2,-3.3c-0.4,-0.4 -0.7,-0.4 -1.1,0c-3.5,3.3 -7.7,5.7 -12.3,7c-8,2.2 -15.7,1.4 -22.9,-2.6c-7.2,-4 -12.1,-10.1 -14.6,-18c-0.4,-1.3 -0.7,-2.7 -1,-4.1c-0.1,-0.5 -0.1,-0.9 -0.2,-1.4c0,-0.3 0,-0.5 0,-0.8c-0.3,-4 0,-7.9 1.2,-11.7c3.1,-9.5 9.2,-16.1 18.5,-19.7c1.3,-0.5 2.6,-0.8 3.9,-1.3c1.6,-0.2 3.3,-0.4 5,-0.6zm5.3,58.8c15.2,-1.9 26.1,-16.1 24.2,-31.6c-1.8,-15.2 -15.6,-26.7 -31.4,-24.8c-15.8,1.9 -26.2,16.2 -24.6,31.2c1.8,16 16.1,27.3 31.8,25.2zm30.4,-4.4c-0.1,0.1 -0.2,0.2 -0.3,0.3c-0.3,0.4 -0.5,0.7 -0.8,1.1c-0.3,0.3 -0.2,0.5 0.1,0.8c3,2.3 5.9,4.6 8.9,6.9c10,7.8 20.1,15.6 30.1,23.4c1.5,1.1 1.5,1.1 2.5,-0.4c0.2,-0.3 0.2,-0.4 -0.1,-0.6c-0.2,-0.1 -0.3,-0.2 -0.4,-0.3c-8.6,-6.7 -17.3,-13.4 -25.9,-20.1c-4.5,-3.5 -9.1,-7 -13.6,-10.6c-0.2,-0.2 -0.3,-0.4 -0.5,-0.5zm-4.2,0.5c-0.1,-0.1 -0.2,-0.2 -0.4,-0.3c-1.3,-1 -2.5,-2 -3.8,-2.9c-0.9,-0.7 -0.9,-0.7 -1.8,0.1c-0.2,0.2 -0.4,0.4 -0.6,0.5c-0.4,0.3 -0.5,0.4 0,0.8c1.2,0.9 2.3,1.8 3.4,2.7c1.5,1.2 1.8,1.2 3,-0.4c0,-0.1 0.1,-0.1 0.1,-0.2c0,-0.1 0,-0.2 0.1,-0.3zm3.6,-3.1c-0.4,0 -0.7,-0.1 -0.8,0.4c-0.6,2.4 -2.1,4.1 -4,5.6c-0.4,0.3 -0.7,0.4 -1.2,0c0.1,0.9 0.2,1 0.8,0.6c2.7,-1.4 4.2,-3.7 5.2,-6.6zm-7.2,-3.3c-0.1,0.1 -0.1,0.3 -0.2,0.4c-0.1,0.3 0.1,0.4 0.3,0.5c1.4,1.1 2.8,2.2 4.3,3.3c0.2,0.1 0.3,0.5 0.6,0.2c0.2,-0.3 0.1,-0.5 -0.2,-0.7c-1.4,-1.1 -2.9,-2.2 -4.3,-3.3c-0.1,-0.2 -0.2,-0.3 -0.5,-0.4zm-2,2.1c-0.2,-0.2 -0.3,-0.3 -0.5,-0.1c-0.5,0.4 -1,0.9 -1.5,1.3c-0.1,0.1 -0.3,0.2 -0.1,0.4c0.2,0.1 0.3,0.1 0.4,0c0.5,-0.4 1,-0.8 1.5,-1.3c0.1,-0.1 0.1,-0.2 0.2,-0.3z" id="XMLID_86_"/>
        </g>
        <g id="XMLID_76_">
          <path stroke="#000000" stroke-miterlimit="10" d="m157,217.6c1.5,0.1 3,0 4.6,0.2c11,1.4 19.2,6.9 24.2,16.8c4.9,9.8 4.4,19.6 -0.8,29.1c-0.3,0.5 -0.2,0.7 0.2,1c1.6,1.2 3.2,2.4 4.7,3.6c0.6,0.5 1.2,0.7 2,0.5c0.5,-0.2 0.8,0 1.3,0.3c13,10.2 26,20.3 39.1,30.5c0.1,0.1 0.1,0.1 0.2,0.2c1,0.7 2,1.4 2.4,2.7c0.1,0.7 0.2,1.4 0.3,2.1c-0.7,2.1 -1.9,3.9 -4,4.8c-0.4,0.1 -0.8,0.1 -1.2,0.2c0,0 0,0 -0.1,0c-1.6,0.3 -2.7,-0.7 -3.8,-1.6c-13.2,-10.3 -26.4,-20.6 -39.6,-30.9c-0.4,-0.3 -0.7,-0.7 -0.7,-1.2c-0.1,-0.8 -0.4,-1.3 -1.1,-1.8c-1.4,-1 -2.8,-2.1 -4.2,-3.3c-0.4,-0.4 -0.7,-0.4 -1.1,0c-3.5,3.3 -7.7,5.7 -12.3,7c-8,2.2 -15.7,1.4 -22.9,-2.6c-7.2,-4 -12.1,-10.1 -14.6,-18c-0.4,-1.3 -0.7,-2.7 -1,-4.1c-0.1,-0.5 -0.1,-0.9 -0.2,-1.4c0,-0.3 0,-0.5 0,-0.8c-0.3,-4 0,-7.9 1.2,-11.7c3.1,-9.5 9.2,-16.1 18.5,-19.7c1.3,-0.5 2.6,-0.8 3.9,-1.3c1.6,-0.2 3.3,-0.4 5,-0.6zm5.3,58.8c15.2,-1.9 26.1,-16.1 24.2,-31.6c-1.8,-15.2 -15.6,-26.7 -31.4,-24.8c-15.8,1.9 -26.2,16.2 -24.6,31.2c1.8,16 16.1,27.3 31.8,25.2zm30.4,-4.4c-0.1,0.1 -0.2,0.2 -0.3,0.3c-0.3,0.4 -0.5,0.7 -0.8,1.1c-0.3,0.3 -0.2,0.5 0.1,0.8c3,2.3 5.9,4.6 8.9,6.9c10,7.8 20.1,15.6 30.1,23.4c1.5,1.1 1.5,1.1 2.5,-0.4c0.2,-0.3 0.2,-0.4 -0.1,-0.6c-0.2,-0.1 -0.3,-0.2 -0.4,-0.3c-8.6,-6.7 -17.3,-13.4 -25.9,-20.1c-4.5,-3.5 -9.1,-7 -13.6,-10.6c-0.2,-0.2 -0.3,-0.4 -0.5,-0.5zm-4.2,0.5c-0.1,-0.1 -0.2,-0.2 -0.4,-0.3c-1.3,-1 -2.5,-2 -3.8,-2.9c-0.9,-0.7 -0.9,-0.7 -1.8,0.1c-0.2,0.2 -0.4,0.4 -0.6,0.5c-0.4,0.3 -0.5,0.4 0,0.8c1.2,0.9 2.3,1.8 3.4,2.7c1.5,1.2 1.8,1.2 3,-0.4c0,-0.1 0.1,-0.1 0.1,-0.2c0,-0.1 0,-0.2 0.1,-0.3zm3.6,-3.1c-0.4,0 -0.7,-0.1 -0.8,0.4c-0.6,2.4 -2.1,4.1 -4,5.6c-0.4,0.3 -0.7,0.4 -1.2,0c0.1,0.9 0.2,1 0.8,0.6c2.7,-1.4 4.2,-3.7 5.2,-6.6zm-7.2,-3.3c-0.1,0.1 -0.1,0.3 -0.2,0.4c-0.1,0.3 0.1,0.4 0.3,0.5c1.4,1.1 2.8,2.2 4.3,3.3c0.2,0.1 0.3,0.5 0.6,0.2c0.2,-0.3 0.1,-0.5 -0.2,-0.7c-1.4,-1.1 -2.9,-2.2 -4.3,-3.3c-0.1,-0.2 -0.2,-0.3 -0.5,-0.4zm-2,2.1c-0.2,-0.2 -0.3,-0.3 -0.5,-0.1c-0.5,0.4 -1,0.9 -1.5,1.3c-0.1,0.1 -0.3,0.2 -0.1,0.4c0.2,0.1 0.3,0.1 0.4,0c0.5,-0.4 1,-0.8 1.5,-1.3c0.1,-0.1 0.1,-0.2 0.2,-0.3z" class="st0" id="XMLID_77_"/>
        </g>
        <g id="XMLID_67_">
          <path fill="none" stroke="#FFFFFF" stroke-width="8" stroke-miterlimit="10" d="m157,217.6c1.5,0.1 3,0 4.6,0.2c11,1.4 19.2,6.9 24.2,16.8c4.9,9.8 4.4,19.6 -0.8,29.1c-0.3,0.5 -0.2,0.7 0.2,1c1.6,1.2 3.2,2.4 4.7,3.6c0.6,0.5 1.2,0.7 2,0.5c0.5,-0.2 0.8,0 1.3,0.3c13,10.2 26,20.3 39.1,30.5c0.1,0.1 0.1,0.1 0.2,0.2c1,0.7 2,1.4 2.4,2.7c0.1,0.7 0.2,1.4 0.3,2.1c-0.7,2.1 -1.9,3.9 -4,4.8c-0.4,0.1 -0.8,0.1 -1.2,0.2c0,0 0,0 -0.1,0c-1.6,0.3 -2.7,-0.7 -3.8,-1.6c-13.2,-10.3 -26.4,-20.6 -39.6,-30.9c-0.4,-0.3 -0.7,-0.7 -0.7,-1.2c-0.1,-0.8 -0.4,-1.3 -1.1,-1.8c-1.4,-1 -2.8,-2.1 -4.2,-3.3c-0.4,-0.4 -0.7,-0.4 -1.1,0c-3.5,3.3 -7.7,5.7 -12.3,7c-8,2.2 -15.7,1.4 -22.9,-2.6c-7.2,-4 -12.1,-10.1 -14.6,-18c-0.4,-1.3 -0.7,-2.7 -1,-4.1c-0.1,-0.5 -0.1,-0.9 -0.2,-1.4c0,-0.3 0,-0.5 0,-0.8c-0.3,-4 0,-7.9 1.2,-11.7c3.1,-9.5 9.2,-16.1 18.5,-19.7c1.3,-0.5 2.6,-0.8 3.9,-1.3c1.6,-0.2 3.3,-0.4 5,-0.6zm5.3,58.8c15.2,-1.9 26.1,-16.1 24.2,-31.6c-1.8,-15.2 -15.6,-26.7 -31.4,-24.8c-15.8,1.9 -26.2,16.2 -24.6,31.2c1.8,16 16.1,27.3 31.8,25.2zm30.4,-4.4c-0.1,0.1 -0.2,0.2 -0.3,0.3c-0.3,0.4 -0.5,0.7 -0.8,1.1c-0.3,0.3 -0.2,0.5 0.1,0.8c3,2.3 5.9,4.6 8.9,6.9c10,7.8 20.1,15.6 30.1,23.4c1.5,1.1 1.5,1.1 2.5,-0.4c0.2,-0.3 0.2,-0.4 -0.1,-0.6c-0.2,-0.1 -0.3,-0.2 -0.4,-0.3c-8.6,-6.7 -17.3,-13.4 -25.9,-20.1c-4.5,-3.5 -9.1,-7 -13.6,-10.6c-0.2,-0.2 -0.3,-0.4 -0.5,-0.5zm-4.2,0.5c-0.1,-0.1 -0.2,-0.2 -0.4,-0.3c-1.3,-1 -2.5,-2 -3.8,-2.9c-0.9,-0.7 -0.9,-0.7 -1.8,0.1c-0.2,0.2 -0.4,0.4 -0.6,0.5c-0.4,0.3 -0.5,0.4 0,0.8c1.2,0.9 2.3,1.8 3.4,2.7c1.5,1.2 1.8,1.2 3,-0.4c0,-0.1 0.1,-0.1 0.1,-0.2c0,-0.1 0,-0.2 0.1,-0.3zm3.6,-3.1c-0.4,0 -0.7,-0.1 -0.8,0.4c-0.6,2.4 -2.1,4.1 -4,5.6c-0.4,0.3 -0.7,0.4 -1.2,0c0.1,0.9 0.2,1 0.8,0.6c2.7,-1.4 4.2,-3.7 5.2,-6.6zm-7.2,-3.3c-0.1,0.1 -0.1,0.3 -0.2,0.4c-0.1,0.3 0.1,0.4 0.3,0.5c1.4,1.1 2.8,2.2 4.3,3.3c0.2,0.1 0.3,0.5 0.6,0.2c0.2,-0.3 0.1,-0.5 -0.2,-0.7c-1.4,-1.1 -2.9,-2.2 -4.3,-3.3c-0.1,-0.2 -0.2,-0.3 -0.5,-0.4zm-2,2.1c-0.2,-0.2 -0.3,-0.3 -0.5,-0.1c-0.5,0.4 -1,0.9 -1.5,1.3c-0.1,0.1 -0.3,0.2 -0.1,0.4c0.2,0.1 0.3,0.1 0.4,0c0.5,-0.4 1,-0.8 1.5,-1.3c0.1,-0.1 0.1,-0.2 0.2,-0.3z" class="st1" id="XMLID_68_"/>
        </g>
      </g>
      <g id="XMLID_5_">
        <path fill="FFFFFF" d="m26.1,276.6l0,-13.5c2,2 4.2,3.6 6.6,4.6c2.4,1 4.8,1.5 7.2,1.5c1.4,0 2.7,-0.2 3.7,-0.5c1.1,-0.3 1.9,-0.7 2.7,-1.3c0.7,-0.5 1.2,-1.2 1.6,-1.9s0.5,-1.5 0.5,-2.4c0,-1.2 -0.3,-2.2 -0.8,-3.2c-0.6,-0.9 -1.3,-1.8 -2.3,-2.6c-1,-0.8 -2.1,-1.5 -3.4,-2.3c-1.3,-0.7 -2.8,-1.5 -4.3,-2.2c-3.9,-2 -6.8,-4.4 -8.8,-7.2c-1.9,-2.8 -2.9,-6.2 -2.9,-10.3c0,-3.1 0.5,-5.8 1.6,-8.1c1,-2.3 2.5,-4.1 4.3,-5.6s3.9,-2.5 6.3,-3.2c2.4,-0.7 4.9,-1 7.6,-1c2.6,0 4.9,0.2 6.9,0.6c2,0.4 3.9,1 5.6,1.7l0,12.6c-0.8,-0.7 -1.8,-1.3 -2.7,-1.8c-1,-0.5 -2,-1 -3.1,-1.3c-1.1,-0.4 -2.1,-0.6 -3.1,-0.8c-1,-0.2 -2,-0.3 -3,-0.3c-1.3,0 -2.5,0.1 -3.5,0.4c-1,0.3 -1.9,0.7 -2.7,1.2c-0.7,0.5 -1.3,1.2 -1.7,1.9c-0.4,0.7 -0.6,1.6 -0.6,2.5c0,1 0.2,1.9 0.7,2.7s1.1,1.6 1.9,2.3c0.8,0.7 1.8,1.4 3,2.1c1.2,0.7 2.5,1.4 4,2.1c2,1 3.8,2.1 5.4,3.2c1.6,1.1 3,2.4 4.1,3.8c1.1,1.4 2,3.1 2.6,4.9c0.6,1.8 0.9,4 0.9,6.4c0,3.4 -0.5,6.2 -1.6,8.5c-1.1,2.3 -2.5,4.1 -4.3,5.5c-1.8,1.4 -3.9,2.4 -6.4,3s-5,0.9 -7.6,0.9c-2.8,0 -5.4,-0.3 -7.9,-0.8c-2.5,-0.1 -4.7,-0.9 -6.5,-2.1z" class="st2" id="XMLID_6_"/>
        <path fill="FFFFFF" d="m112.1,279l-11.3,0l0,-24.5l-20.8,0l0,24.5l-11.3,0l0,-60.3l11.3,0l0,24l20.8,0l0,-24l11.3,0l0,60.3z" class="st2" id="XMLID_8_"/>
        <path fill="FFFFFF" d="m273.9,218.7l-13.3,60.3l-12.5,0l-8.3,-38.7c-0.4,-2 -0.7,-4.3 -0.8,-6.8l-0.1,0c-0.2,2.7 -0.5,5 -0.9,6.8l-8.5,38.7l-13.1,0l-13.2,-60.3l12.4,0l7.1,40.1c0.3,1.7 0.5,4 0.7,6.9l0.2,0c0.1,-2.2 0.4,-4.5 1,-7.1l9.1,-40l12.1,0l8.2,40.5c0.3,1.5 0.6,3.6 0.8,6.5l0.1,0c0.1,-2.2 0.3,-4.5 0.7,-6.7l6.9,-40.2l11.4,0z" class="st2" id="XMLID_10_"/>
        <path fill="FFFFFF" d="m63.7,333.7l-14.3,0l0,49.3l-11.4,0l0,-49.2l-14.2,0l0,-11.1l39.9,0l0,11z" class="st2" id="XMLID_12_"/>
        <path fill="FFFFFF" d="m112.6,383l-13,0l-7.8,-15.5c-0.6,-1.2 -1.1,-2.2 -1.7,-3.2c-0.5,-0.9 -1.1,-1.7 -1.6,-2.4c-0.5,-0.7 -1.1,-1.2 -1.7,-1.5c-0.6,-0.4 -1.2,-0.5 -1.9,-0.5l-3,0l0,23.1l-11.3,0l0,-60.3l17.9,0c12.2,0 18.3,5.5 18.3,16.4c0,2.1 -0.3,4 -0.8,5.8c-0.5,1.8 -1.3,3.4 -2.3,4.8c-1,1.4 -2.2,2.7 -3.6,3.7c-1.4,1 -2.9,1.8 -4.6,2.4l0,0.2c0.7,0.3 1.5,0.7 2.2,1.4c0.7,0.6 1.4,1.4 2,2.2c0.7,0.8 1.3,1.7 1.9,2.7s1.1,1.9 1.6,2.8l9.4,17.9zm-30.8,-50.1l0,16.8l4.9,0c2.4,0 4.4,-0.8 5.8,-2.5c1.5,-1.7 2.2,-3.8 2.2,-6.3c0,-5.3 -2.6,-7.9 -7.9,-7.9l-5,0l0,-0.1z" class="st2" id="XMLID_14_"/>
        <path fill="FFFFFF" d="m161.4,383l-12.3,0l-3.6,-13.4l-17.9,0l-3.5,13.4l-12.3,0l18.3,-60.3l13.4,0l17.9,60.3zm-18.5,-23.9l-5.4,-20.3c-0.4,-1.5 -0.7,-3.3 -0.8,-5.4l-0.3,0c-0.1,1.8 -0.4,3.5 -0.9,5.3l-5.5,20.4l12.9,0z" class="st2" id="XMLID_32_"/>
        <path fill="FFFFFF" d="m203.7,380.8c-3.7,2.1 -8.4,3.2 -14.4,3.2c-7.7,0 -13.8,-2.7 -18.2,-8.2c-4.4,-5.4 -6.6,-12.7 -6.6,-21.7c0,-9.6 2.5,-17.5 7.4,-23.5s11.4,-9 19.3,-9c4.9,0 9,0.7 12.4,2.2l0,13.2c-3.4,-2.4 -7.2,-3.6 -11.5,-3.6c-4.7,0 -8.5,1.8 -11.4,5.3c-2.9,3.6 -4.3,8.4 -4.3,14.5c0,5.8 1.4,10.5 4.1,13.9c2.7,3.5 6.4,5.2 11,5.2c4.4,0 8.4,-1.3 12.1,-3.9l0,12.4l0.1,0z" class="st2" id="XMLID_43_"/>
        <path fill="FFFFFF" d="m254.1,383l-14.3,0l-14.6,-26.2c-0.3,-0.5 -0.7,-1.6 -1.3,-3.3l-0.2,0l0,29.5l-11.3,0l0,-60.3l11.3,0l0,28.5l0.2,0c0.3,-0.8 0.7,-1.9 1.4,-3.4l13.9,-25.1l13.5,0l-17.5,28.8l18.9,31.5z" class="st2" id="XMLID_45_"/>
        <path fill="FFFFFF" d="m289,383l-30.1,0l0,-60.3l29,0l0,11.1l-17.6,0l0,13.4l16.4,0l0,11l-16.4,0l0,13.8l18.7,0l0,11z" class="st2" id="XMLID_49_"/>
        <path fill="FFFFFF" d="m339.2,383l-13,0l-7.8,-15.5c-0.6,-1.2 -1.1,-2.2 -1.7,-3.2s-1.1,-1.7 -1.6,-2.4c-0.5,-0.7 -1.1,-1.2 -1.7,-1.5c-0.6,-0.4 -1.2,-0.5 -1.9,-0.5l-3,0l0,23.1l-11.3,0l0,-60.3l17.8,0c12.2,0 18.3,5.5 18.3,16.4c0,2.1 -0.3,4 -0.8,5.8s-1.3,3.4 -2.3,4.8s-2.2,2.7 -3.6,3.7c-1.4,1 -2.9,1.8 -4.6,2.4l0,0.2c0.7,0.3 1.5,0.7 2.2,1.4c0.7,0.6 1.4,1.4 2,2.2c0.7,0.8 1.3,1.7 1.9,2.7c0.6,1 1.1,1.9 1.6,2.8l9.5,17.9zm-30.8,-50.1l0,16.8l4.9,0c2.4,0 4.4,-0.8 5.8,-2.5c1.5,-1.7 2.2,-3.8 2.2,-6.3c0,-5.3 -2.6,-7.9 -7.9,-7.9l-5,0l0,-0.1z" class="st2" id="XMLID_51_"/>
      </g>
      <line stroke="#000000" stroke-width="3" stroke-miterlimit="10" y2="307.7" x2="228.7" y1="277.7" x1="190" class="st3" id="XMLID_1_"/>
    </g>
    <g id="XMLID_2_"/>
    <g id="XMLID_54_"/>
    <g id="XMLID_55_"/>
    <g id="XMLID_56_"/>
    <g id="XMLID_57_"/>
    <g id="XMLID_58_"/>
  </g>
</svg>